<svg width="16.666in" height="7.472in" viewBox="0 0 16.666 7.472" xmlns="http://www.w3.org/2000/svg" version="1.1" preserveAspectRatio="xMidYMid meet"><g id="svgGroup" stroke-linecap="round" fill-rule="evenodd" font-size="9pt" stroke="#000" stroke-width="0.25mm" fill="none" style="stroke:#000;stroke-width:0.25mm;fill:none"><path d="M 0 4.736 L 0 5.396 L 0.236 5.396 L 0.236 5.868 L 0 5.868 L 0 6.34 L 0.236 6.34 L 0.236 6.812 L 0 6.812 L 0 7.284 L 0 7.472 L 0.584 7.472 L 0.584 7.236 L 1.056 7.236 L 1.056 7.472 L 1.528 7.472 L 1.528 7.236 L 2 7.236 L 2 7.472 L 2.472 7.472 L 2.472 7.236 L 2.944 7.236 L 2.944 7.472 L 3.416 7.472 L 3.416 7.236 L 3.888 7.236 L 3.888 7.472 L 4.36 7.472 L 4.472 7.472 L 4.472 6.812 L 4.236 6.812 L 4.236 6.34 L 4.472 6.34 L 4.472 5.868 L 4.236 5.868 L 4.236 5.396 L 4.472 5.396 L 4.472 4.924 L 4.472 4.736 L 0 4.736 Z" id="front_outsideCutPath" stroke="#FF0000" stroke-width="0.1" style="stroke:#FF0000;stroke-width:0.1" vector-effect="non-scaling-stroke"/><path d="M 2.635 6.311 L 2.59 6.311 L 2.59 6.121 A 0.125 0.125 0 0 0 2.589 6.102 Q 2.587 6.091 2.584 6.083 A 0.053 0.053 0 0 0 2.574 6.068 A 0.05 0.05 0 0 0 2.554 6.055 Q 2.541 6.05 2.523 6.05 A 0.134 0.134 0 0 0 2.498 6.052 Q 2.484 6.055 2.473 6.061 A 0.063 0.063 0 0 0 2.456 6.075 A 0.073 0.073 0 0 0 2.443 6.097 Q 2.436 6.117 2.435 6.147 A 0.284 0.284 0 0 0 2.434 6.157 L 2.434 6.311 L 2.39 6.311 L 2.39 6.018 L 2.426 6.018 L 2.433 6.058 L 2.435 6.058 A 0.09 0.09 0 0 1 2.471 6.026 A 0.108 0.108 0 0 1 2.474 6.024 A 0.12 0.12 0 0 1 2.516 6.013 A 0.145 0.145 0 0 1 2.528 6.012 Q 2.581 6.012 2.608 6.038 A 0.077 0.077 0 0 1 2.627 6.067 Q 2.631 6.08 2.633 6.095 A 0.194 0.194 0 0 1 2.635 6.12 L 2.635 6.311 Z M 1.783 6.018 L 1.783 6.052 L 1.708 6.052 L 1.708 6.311 L 1.664 6.311 L 1.664 6.052 L 1.611 6.052 L 1.611 6.032 L 1.664 6.016 L 1.664 6 Q 1.664 5.907 1.734 5.894 A 0.135 0.135 0 0 1 1.758 5.892 Q 1.776 5.892 1.799 5.898 A 0.287 0.287 0 0 1 1.813 5.901 L 1.801 5.937 A 0.215 0.215 0 0 0 1.784 5.932 Q 1.769 5.929 1.757 5.929 A 0.06 0.06 0 0 0 1.743 5.93 A 0.038 0.038 0 0 0 1.72 5.945 Q 1.709 5.96 1.708 5.992 A 0.209 0.209 0 0 0 1.708 5.999 L 1.708 6.018 L 1.783 6.018 Z M 2.861 6.274 L 2.861 6.308 A 0.044 0.044 0 0 1 2.855 6.31 Q 2.849 6.312 2.839 6.314 A 0.192 0.192 0 0 1 2.827 6.315 Q 2.821 6.316 2.816 6.316 A 0.114 0.114 0 0 1 2.814 6.316 Q 2.746 6.316 2.733 6.259 A 0.139 0.139 0 0 1 2.729 6.226 L 2.729 6.052 L 2.687 6.052 L 2.687 6.031 L 2.729 6.012 L 2.748 5.95 L 2.773 5.95 L 2.773 6.018 L 2.858 6.018 L 2.858 6.052 L 2.773 6.052 L 2.773 6.225 A 0.089 0.089 0 0 0 2.775 6.24 Q 2.777 6.256 2.786 6.265 A 0.041 0.041 0 0 0 2.811 6.279 A 0.059 0.059 0 0 0 2.82 6.279 A 0.146 0.146 0 0 0 2.842 6.278 A 0.134 0.134 0 0 0 2.843 6.278 A 0.239 0.239 0 0 0 2.85 6.277 Q 2.853 6.276 2.855 6.275 A 0.093 0.093 0 0 0 2.86 6.274 Z M 2.005 6.016 L 1.999 6.057 A 0.195 0.195 0 0 0 1.985 6.054 Q 1.975 6.053 1.967 6.053 A 0.077 0.077 0 0 0 1.91 6.077 A 0.105 0.105 0 0 0 1.906 6.082 Q 1.881 6.111 1.881 6.154 L 1.881 6.311 L 1.836 6.311 L 1.836 6.018 L 1.873 6.018 L 1.878 6.072 L 1.88 6.072 A 0.15 0.15 0 0 1 1.897 6.048 A 0.114 0.114 0 0 1 1.919 6.028 Q 1.942 6.012 1.97 6.012 A 0.204 0.204 0 0 1 1.988 6.013 A 0.149 0.149 0 0 1 2.005 6.016 Z M 2.308 6.209 A 0.229 0.229 0 0 0 2.312 6.164 Q 2.312 6.094 2.276 6.053 A 0.116 0.116 0 0 0 2.222 6.019 A 0.149 0.149 0 0 0 2.178 6.012 A 0.172 0.172 0 0 0 2.147 6.015 A 0.117 0.117 0 0 0 2.079 6.052 A 0.123 0.123 0 0 0 2.064 6.073 Q 2.052 6.094 2.047 6.119 A 0.23 0.23 0 0 0 2.043 6.164 A 0.222 0.222 0 0 0 2.046 6.2 A 0.164 0.164 0 0 0 2.06 6.245 A 0.146 0.146 0 0 0 2.063 6.251 A 0.12 0.12 0 0 0 2.107 6.298 A 0.124 0.124 0 0 0 2.135 6.31 A 0.142 0.142 0 0 0 2.177 6.316 A 0.172 0.172 0 0 0 2.207 6.313 A 0.118 0.118 0 0 0 2.276 6.276 A 0.124 0.124 0 0 0 2.291 6.256 Q 2.303 6.235 2.308 6.209 Z M 2.089 6.164 A 0.225 0.225 0 0 0 2.091 6.196 Q 2.096 6.229 2.112 6.249 A 0.073 0.073 0 0 0 2.159 6.277 A 0.11 0.11 0 0 0 2.178 6.279 Q 2.221 6.279 2.244 6.25 A 0.095 0.095 0 0 0 2.259 6.221 Q 2.263 6.207 2.265 6.191 A 0.234 0.234 0 0 0 2.266 6.164 Q 2.266 6.128 2.257 6.103 A 0.091 0.091 0 0 0 2.244 6.079 A 0.073 0.073 0 0 0 2.198 6.052 A 0.112 0.112 0 0 0 2.177 6.05 A 0.106 0.106 0 0 0 2.151 6.053 A 0.071 0.071 0 0 0 2.111 6.079 A 0.092 0.092 0 0 0 2.097 6.106 Q 2.093 6.119 2.091 6.134 A 0.234 0.234 0 0 0 2.089 6.164 Z" id="front_labelLayer" stroke="#777777" fill="#777777" style="stroke:#777777;fill:#777777" vector-effect="non-scaling-stroke"/><path d="M 4.833 4.736 L 4.833 5.396 L 4.597 5.396 L 4.597 5.868 L 4.833 5.868 L 4.833 6.34 L 4.597 6.34 L 4.597 6.812 L 4.833 6.812 L 4.833 7.284 L 4.833 7.472 L 5.265 7.472 L 5.265 7.236 L 5.737 7.236 L 5.737 7.472 L 6.209 7.472 L 6.209 7.236 L 6.681 7.236 L 6.681 7.472 L 7.153 7.472 L 7.153 7.236 L 7.625 7.236 L 7.625 7.472 L 8.097 7.472 L 8.097 7.236 L 8.569 7.236 L 8.569 7.472 L 9.041 7.472 L 9.041 7.236 L 9.513 7.236 L 9.513 7.472 L 9.985 7.472 L 9.985 7.236 L 10.457 7.236 L 10.457 7.472 L 10.929 7.472 L 10.929 7.236 L 11.401 7.236 L 11.401 7.472 L 11.833 7.472 L 11.833 6.812 L 12.069 6.812 L 12.069 6.34 L 11.833 6.34 L 11.833 5.868 L 12.069 5.868 L 12.069 5.396 L 11.833 5.396 L 11.833 4.924 L 11.833 4.736 L 4.833 4.736 Z" id="left_outsideCutPath" stroke="#FF0000" stroke-width="0.1" style="stroke:#FF0000;stroke-width:0.1" vector-effect="non-scaling-stroke"/><path d="M 8.528 6.018 L 8.528 6.052 L 8.453 6.052 L 8.453 6.311 L 8.409 6.311 L 8.409 6.052 L 8.356 6.052 L 8.356 6.032 L 8.409 6.016 L 8.409 6 Q 8.409 5.907 8.479 5.894 A 0.135 0.135 0 0 1 8.503 5.892 Q 8.521 5.892 8.544 5.898 A 0.287 0.287 0 0 1 8.558 5.901 L 8.546 5.937 A 0.215 0.215 0 0 0 8.529 5.932 Q 8.514 5.929 8.502 5.929 A 0.06 0.06 0 0 0 8.488 5.93 A 0.038 0.038 0 0 0 8.465 5.945 Q 8.454 5.96 8.453 5.992 A 0.209 0.209 0 0 0 8.453 5.999 L 8.453 6.018 L 8.528 6.018 Z M 8.32 6.144 L 8.32 6.172 L 8.118 6.172 A 0.178 0.178 0 0 0 8.121 6.202 Q 8.125 6.218 8.131 6.231 A 0.083 0.083 0 0 0 8.144 6.251 A 0.081 0.081 0 0 0 8.187 6.274 A 0.122 0.122 0 0 0 8.214 6.277 A 0.234 0.234 0 0 0 8.302 6.26 A 0.269 0.269 0 0 0 8.307 6.257 L 8.307 6.297 A 0.266 0.266 0 0 1 8.283 6.306 A 0.204 0.204 0 0 1 8.263 6.312 A 0.186 0.186 0 0 1 8.245 6.314 Q 8.23 6.316 8.212 6.316 A 0.172 0.172 0 0 1 8.169 6.311 A 0.122 0.122 0 0 1 8.11 6.276 Q 8.075 6.239 8.072 6.175 A 0.254 0.254 0 0 1 8.072 6.167 Q 8.072 6.096 8.107 6.054 A 0.114 0.114 0 0 1 8.19 6.013 A 0.157 0.157 0 0 1 8.201 6.012 Q 8.256 6.012 8.288 6.049 A 0.124 0.124 0 0 1 8.316 6.105 A 0.181 0.181 0 0 1 8.32 6.144 Z M 8.716 6.274 L 8.716 6.308 A 0.044 0.044 0 0 1 8.711 6.31 Q 8.704 6.312 8.695 6.314 A 0.192 0.192 0 0 1 8.682 6.315 Q 8.676 6.316 8.671 6.316 A 0.114 0.114 0 0 1 8.669 6.316 Q 8.601 6.316 8.588 6.259 A 0.139 0.139 0 0 1 8.584 6.226 L 8.584 6.052 L 8.542 6.052 L 8.542 6.031 L 8.584 6.012 L 8.603 5.95 L 8.629 5.95 L 8.629 6.018 L 8.714 6.018 L 8.714 6.052 L 8.629 6.052 L 8.629 6.225 A 0.089 0.089 0 0 0 8.63 6.24 Q 8.633 6.256 8.641 6.265 A 0.041 0.041 0 0 0 8.667 6.279 A 0.059 0.059 0 0 0 8.676 6.279 A 0.146 0.146 0 0 0 8.697 6.278 A 0.134 0.134 0 0 0 8.698 6.278 A 0.239 0.239 0 0 0 8.705 6.277 Q 8.708 6.276 8.71 6.275 A 0.093 0.093 0 0 0 8.715 6.274 Z M 7.995 5.895 L 7.995 6.311 L 7.95 6.311 L 7.95 5.895 L 7.995 5.895 Z M 8.119 6.136 L 8.272 6.136 A 0.151 0.151 0 0 0 8.271 6.112 Q 8.269 6.099 8.264 6.088 A 0.069 0.069 0 0 0 8.254 6.072 A 0.061 0.061 0 0 0 8.217 6.051 A 0.091 0.091 0 0 0 8.2 6.05 A 0.087 0.087 0 0 0 8.175 6.053 A 0.068 0.068 0 0 0 8.144 6.073 A 0.088 0.088 0 0 0 8.127 6.102 Q 8.122 6.114 8.12 6.129 A 0.167 0.167 0 0 0 8.119 6.136 Z" id="left_labelLayer" stroke="#777777" fill="#777777" style="stroke:#777777;fill:#777777" vector-effect="non-scaling-stroke"/><path d="M 0 1.875 L 0 2.535 L 0.236 2.535 L 0.236 3.007 L 0 3.007 L 0 3.479 L 0.236 3.479 L 0.236 3.951 L 0 3.951 L 0 4.423 L 0 4.611 L 0.584 4.611 L 0.584 4.375 L 1.056 4.375 L 1.056 4.611 L 1.528 4.611 L 1.528 4.375 L 2 4.375 L 2 4.611 L 2.472 4.611 L 2.472 4.375 L 2.944 4.375 L 2.944 4.611 L 3.416 4.611 L 3.416 4.375 L 3.888 4.375 L 3.888 4.611 L 4.36 4.611 L 4.472 4.611 L 4.472 3.951 L 4.236 3.951 L 4.236 3.479 L 4.472 3.479 L 4.472 3.007 L 4.236 3.007 L 4.236 2.535 L 4.472 2.535 L 4.472 2.063 L 4.472 1.875 L 0 1.875 Z" id="back_outsideCutPath" stroke="#FF0000" stroke-width="0.1" style="stroke:#FF0000;stroke-width:0.1" vector-effect="non-scaling-stroke"/><path d="M 2.611 3.298 L 2.613 3.298 Q 2.624 3.282 2.648 3.256 L 2.742 3.155 L 2.795 3.155 L 2.676 3.28 L 2.803 3.448 L 2.75 3.448 L 2.646 3.31 L 2.613 3.339 L 2.613 3.448 L 2.569 3.448 L 2.569 3.032 L 2.613 3.032 L 2.613 3.253 Q 2.613 3.268 2.611 3.298 Z M 1.713 3.411 L 1.71 3.411 L 1.701 3.448 L 1.669 3.448 L 1.669 3.032 L 1.713 3.032 L 1.713 3.133 A 0.925 0.925 0 0 1 1.713 3.165 Q 1.712 3.179 1.711 3.193 A 0.52 0.52 0 0 1 1.711 3.194 L 1.713 3.194 A 0.101 0.101 0 0 1 1.787 3.152 A 0.151 0.151 0 0 1 1.805 3.151 A 0.136 0.136 0 0 1 1.843 3.156 A 0.101 0.101 0 0 1 1.895 3.19 Q 1.927 3.229 1.927 3.302 Q 1.927 3.352 1.911 3.387 A 0.125 0.125 0 0 1 1.894 3.414 A 0.105 0.105 0 0 1 1.82 3.453 A 0.15 0.15 0 0 1 1.805 3.454 A 0.135 0.135 0 0 1 1.771 3.449 A 0.117 0.117 0 0 1 1.753 3.443 Q 1.729 3.432 1.713 3.411 Z M 2.217 3.448 L 2.184 3.448 L 2.175 3.407 L 2.173 3.407 A 0.184 0.184 0 0 1 2.158 3.423 Q 2.144 3.437 2.13 3.444 A 0.102 0.102 0 0 1 2.108 3.45 Q 2.093 3.454 2.075 3.454 A 0.136 0.136 0 0 1 2.047 3.451 Q 2.023 3.446 2.007 3.431 A 0.073 0.073 0 0 1 1.985 3.393 A 0.112 0.112 0 0 1 1.982 3.367 A 0.077 0.077 0 0 1 2.026 3.295 Q 2.058 3.278 2.115 3.275 A 0.433 0.433 0 0 1 2.124 3.274 L 2.174 3.273 L 2.174 3.254 A 0.127 0.127 0 0 0 2.173 3.236 Q 2.171 3.227 2.168 3.219 A 0.049 0.049 0 0 0 2.159 3.204 A 0.045 0.045 0 0 0 2.14 3.192 Q 2.133 3.189 2.124 3.188 A 0.11 0.11 0 0 0 2.111 3.187 A 0.144 0.144 0 0 0 2.078 3.191 Q 2.063 3.195 2.046 3.202 A 0.297 0.297 0 0 0 2.029 3.21 L 2.015 3.176 A 0.204 0.204 0 0 1 2.055 3.159 A 0.233 0.233 0 0 1 2.062 3.157 A 0.205 0.205 0 0 1 2.114 3.151 Q 2.167 3.151 2.192 3.174 A 0.07 0.07 0 0 1 2.21 3.202 Q 2.214 3.213 2.216 3.228 A 0.175 0.175 0 0 1 2.217 3.248 L 2.217 3.448 Z M 2.504 3.165 L 2.49 3.203 A 0.197 0.197 0 0 0 2.469 3.196 A 0.236 0.236 0 0 0 2.458 3.193 A 0.183 0.183 0 0 0 2.444 3.191 Q 2.437 3.19 2.431 3.189 A 0.098 0.098 0 0 0 2.427 3.189 A 0.098 0.098 0 0 0 2.387 3.197 Q 2.345 3.215 2.339 3.279 A 0.245 0.245 0 0 0 2.338 3.303 Q 2.338 3.339 2.347 3.363 A 0.092 0.092 0 0 0 2.36 3.386 A 0.07 0.07 0 0 0 2.405 3.413 A 0.107 0.107 0 0 0 2.424 3.415 Q 2.461 3.415 2.499 3.399 L 2.499 3.438 Q 2.47 3.454 2.425 3.454 A 0.166 0.166 0 0 1 2.385 3.449 A 0.112 0.112 0 0 1 2.327 3.414 A 0.128 0.128 0 0 1 2.3 3.365 Q 2.294 3.346 2.293 3.323 A 0.268 0.268 0 0 1 2.292 3.304 Q 2.292 3.25 2.311 3.215 A 0.122 0.122 0 0 1 2.328 3.19 A 0.115 0.115 0 0 1 2.39 3.154 A 0.174 0.174 0 0 1 2.428 3.15 Q 2.449 3.15 2.471 3.155 Q 2.484 3.157 2.494 3.161 A 0.088 0.088 0 0 1 2.503 3.165 Z M 1.799 3.188 A 0.125 0.125 0 0 0 1.774 3.19 Q 1.761 3.193 1.75 3.199 A 0.059 0.059 0 0 0 1.733 3.214 A 0.076 0.076 0 0 0 1.722 3.235 Q 1.715 3.255 1.713 3.287 A 0.342 0.342 0 0 0 1.713 3.302 A 0.293 0.293 0 0 0 1.715 3.332 Q 1.719 3.37 1.734 3.39 A 0.064 0.064 0 0 0 1.766 3.412 Q 1.777 3.415 1.791 3.416 A 0.143 0.143 0 0 0 1.8 3.416 A 0.088 0.088 0 0 0 1.825 3.413 A 0.064 0.064 0 0 0 1.861 3.387 Q 1.881 3.357 1.881 3.301 A 0.262 0.262 0 0 0 1.879 3.271 Q 1.875 3.236 1.861 3.216 A 0.065 0.065 0 0 0 1.819 3.19 A 0.103 0.103 0 0 0 1.799 3.188 Z M 2.173 3.331 L 2.173 3.304 L 2.128 3.306 A 0.326 0.326 0 0 0 2.102 3.308 Q 2.069 3.312 2.052 3.322 A 0.047 0.047 0 0 0 2.029 3.357 A 0.07 0.07 0 0 0 2.029 3.368 Q 2.029 3.392 2.043 3.404 A 0.048 0.048 0 0 0 2.061 3.414 Q 2.068 3.416 2.077 3.417 A 0.1 0.1 0 0 0 2.084 3.417 A 0.122 0.122 0 0 0 2.11 3.414 Q 2.134 3.409 2.149 3.394 A 0.074 0.074 0 0 0 2.17 3.357 A 0.113 0.113 0 0 0 2.173 3.331 Z" id="back_labelLayer" stroke="#777777" fill="#777777" style="stroke:#777777;fill:#777777" vector-effect="non-scaling-stroke"/><path d="M 4.833 1.875 L 4.833 2.535 L 4.597 2.535 L 4.597 3.007 L 4.833 3.007 L 4.833 3.479 L 4.597 3.479 L 4.597 3.951 L 4.833 3.951 L 4.833 4.423 L 4.833 4.611 L 5.265 4.611 L 5.265 4.375 L 5.737 4.375 L 5.737 4.611 L 6.209 4.611 L 6.209 4.375 L 6.681 4.375 L 6.681 4.611 L 7.153 4.611 L 7.153 4.375 L 7.625 4.375 L 7.625 4.611 L 8.097 4.611 L 8.097 4.375 L 8.569 4.375 L 8.569 4.611 L 9.041 4.611 L 9.041 4.375 L 9.513 4.375 L 9.513 4.611 L 9.985 4.611 L 9.985 4.375 L 10.457 4.375 L 10.457 4.611 L 10.929 4.611 L 10.929 4.375 L 11.401 4.375 L 11.401 4.611 L 11.833 4.611 L 11.833 3.951 L 12.069 3.951 L 12.069 3.479 L 11.833 3.479 L 11.833 3.007 L 12.069 3.007 L 12.069 2.535 L 11.833 2.535 L 11.833 2.063 L 11.833 1.875 L 4.833 1.875 Z" id="right_outsideCutPath" stroke="#FF0000" stroke-width="0.1" style="stroke:#FF0000;stroke-width:0.1" vector-effect="non-scaling-stroke"/><path d="M 8.673 3.385 L 8.629 3.385 L 8.629 3.196 A 0.125 0.125 0 0 0 8.627 3.176 Q 8.626 3.166 8.622 3.157 A 0.053 0.053 0 0 0 8.613 3.142 A 0.05 0.05 0 0 0 8.592 3.129 Q 8.579 3.125 8.562 3.125 A 0.134 0.134 0 0 0 8.536 3.127 Q 8.523 3.129 8.512 3.135 A 0.062 0.062 0 0 0 8.494 3.15 A 0.074 0.074 0 0 0 8.482 3.172 Q 8.474 3.192 8.473 3.222 A 0.286 0.286 0 0 0 8.473 3.232 L 8.473 3.385 L 8.429 3.385 L 8.429 2.969 L 8.473 2.969 L 8.473 3.095 A 0.399 0.399 0 0 1 8.473 3.111 Q 8.472 3.118 8.472 3.124 A 0.173 0.173 0 0 1 8.471 3.133 L 8.473 3.133 A 0.089 0.089 0 0 1 8.504 3.103 A 0.108 0.108 0 0 1 8.511 3.1 A 0.114 0.114 0 0 1 8.548 3.089 A 0.144 0.144 0 0 1 8.566 3.087 A 0.18 0.18 0 0 1 8.596 3.09 Q 8.612 3.093 8.625 3.099 A 0.08 0.08 0 0 1 8.646 3.113 A 0.077 0.077 0 0 1 8.665 3.143 Q 8.673 3.164 8.673 3.194 L 8.673 3.385 Z M 8.267 3.092 L 8.368 3.092 L 8.368 3.12 L 8.314 3.127 A 0.072 0.072 0 0 1 8.32 3.136 Q 8.324 3.143 8.328 3.151 A 0.085 0.085 0 0 1 8.333 3.172 A 0.11 0.11 0 0 1 8.333 3.185 A 0.102 0.102 0 0 1 8.329 3.217 A 0.082 0.082 0 0 1 8.304 3.254 Q 8.275 3.28 8.223 3.28 A 0.143 0.143 0 0 1 8.207 3.279 A 0.12 0.12 0 0 1 8.199 3.277 A 0.079 0.079 0 0 0 8.186 3.286 Q 8.179 3.291 8.176 3.297 A 0.033 0.033 0 0 0 8.17 3.315 A 0.023 0.023 0 0 0 8.172 3.323 A 0.019 0.019 0 0 0 8.18 3.333 A 0.031 0.031 0 0 0 8.187 3.336 Q 8.194 3.338 8.205 3.338 A 0.169 0.169 0 0 0 8.214 3.339 L 8.266 3.339 Q 8.298 3.339 8.32 3.348 A 0.08 0.08 0 0 1 8.339 3.359 A 0.065 0.065 0 0 1 8.363 3.4 A 0.097 0.097 0 0 1 8.365 3.417 A 0.096 0.096 0 0 1 8.359 3.45 Q 8.35 3.475 8.326 3.491 Q 8.298 3.509 8.254 3.514 A 0.352 0.352 0 0 1 8.212 3.517 Q 8.174 3.517 8.148 3.507 A 0.103 0.103 0 0 1 8.123 3.495 A 0.071 0.071 0 0 1 8.1 3.47 Q 8.093 3.457 8.092 3.44 A 0.094 0.094 0 0 1 8.092 3.435 Q 8.092 3.408 8.109 3.389 A 0.077 0.077 0 0 1 8.136 3.369 A 0.11 0.11 0 0 1 8.157 3.362 A 0.046 0.046 0 0 1 8.139 3.348 A 0.055 0.055 0 0 1 8.138 3.346 A 0.041 0.041 0 0 1 8.131 3.324 A 0.051 0.051 0 0 1 8.131 3.322 A 0.051 0.051 0 0 1 8.133 3.305 A 0.045 0.045 0 0 1 8.139 3.293 A 0.063 0.063 0 0 1 8.148 3.284 Q 8.152 3.28 8.158 3.276 A 0.139 0.139 0 0 1 8.166 3.27 A 0.078 0.078 0 0 1 8.133 3.243 A 0.096 0.096 0 0 1 8.129 3.238 A 0.092 0.092 0 0 1 8.115 3.194 A 0.112 0.112 0 0 1 8.115 3.187 Q 8.115 3.139 8.144 3.113 Q 8.169 3.091 8.212 3.087 A 0.196 0.196 0 0 1 8.226 3.087 A 0.17 0.17 0 0 1 8.248 3.088 A 0.129 0.129 0 0 1 8.267 3.092 Z M 8.899 3.349 L 8.899 3.382 A 0.044 0.044 0 0 1 8.894 3.385 Q 8.887 3.387 8.878 3.388 A 0.192 0.192 0 0 1 8.865 3.39 Q 8.859 3.39 8.854 3.39 A 0.114 0.114 0 0 1 8.853 3.39 Q 8.785 3.39 8.771 3.334 A 0.139 0.139 0 0 1 8.768 3.301 L 8.768 3.127 L 8.726 3.127 L 8.726 3.105 L 8.768 3.087 L 8.786 3.024 L 8.812 3.024 L 8.812 3.092 L 8.897 3.092 L 8.897 3.127 L 8.812 3.127 L 8.812 3.299 A 0.089 0.089 0 0 0 8.813 3.315 Q 8.816 3.33 8.824 3.34 A 0.041 0.041 0 0 0 8.85 3.353 A 0.059 0.059 0 0 0 8.859 3.354 A 0.146 0.146 0 0 0 8.88 3.352 A 0.134 0.134 0 0 0 8.882 3.352 A 0.239 0.239 0 0 0 8.888 3.351 Q 8.891 3.35 8.894 3.35 A 0.093 0.093 0 0 0 8.898 3.349 Z M 7.936 3.09 L 7.929 3.131 A 0.195 0.195 0 0 0 7.915 3.129 Q 7.906 3.127 7.897 3.127 A 0.077 0.077 0 0 0 7.841 3.152 A 0.105 0.105 0 0 0 7.837 3.156 Q 7.811 3.185 7.811 3.228 L 7.811 3.385 L 7.767 3.385 L 7.767 3.092 L 7.804 3.092 L 7.809 3.147 L 7.811 3.147 A 0.15 0.15 0 0 1 7.828 3.123 A 0.114 0.114 0 0 1 7.85 3.102 Q 7.873 3.087 7.901 3.087 A 0.204 0.204 0 0 1 7.919 3.088 A 0.149 0.149 0 0 1 7.936 3.09 Z M 8.035 3.092 L 8.035 3.385 L 7.99 3.385 L 7.99 3.092 L 8.035 3.092 Z M 8.252 3.378 L 8.199 3.378 Q 8.177 3.378 8.162 3.386 A 0.052 0.052 0 0 0 8.152 3.393 A 0.047 0.047 0 0 0 8.136 3.419 A 0.071 0.071 0 0 0 8.135 3.434 Q 8.135 3.458 8.155 3.47 Q 8.175 3.483 8.212 3.483 A 0.298 0.298 0 0 0 8.241 3.481 Q 8.276 3.478 8.295 3.466 A 0.065 0.065 0 0 0 8.31 3.453 A 0.048 0.048 0 0 0 8.322 3.421 A 0.06 0.06 0 0 0 8.321 3.409 Q 8.318 3.394 8.307 3.388 Q 8.296 3.381 8.27 3.379 A 0.282 0.282 0 0 0 8.252 3.378 Z M 8.159 3.186 A 0.087 0.087 0 0 0 8.161 3.204 Q 8.163 3.215 8.169 3.224 A 0.047 0.047 0 0 0 8.176 3.233 Q 8.192 3.247 8.219 3.248 A 0.114 0.114 0 0 0 8.225 3.248 A 0.097 0.097 0 0 0 8.25 3.245 Q 8.279 3.237 8.287 3.209 A 0.09 0.09 0 0 0 8.29 3.185 A 0.095 0.095 0 0 0 8.286 3.159 Q 8.278 3.13 8.248 3.122 A 0.096 0.096 0 0 0 8.224 3.119 A 0.093 0.093 0 0 0 8.205 3.121 Q 8.187 3.125 8.176 3.136 Q 8.161 3.15 8.159 3.176 A 0.117 0.117 0 0 0 8.159 3.186 Z M 7.987 3.005 A 0.049 0.049 0 0 0 7.987 3.013 Q 7.987 3.028 7.994 3.035 A 0.025 0.025 0 0 0 8.003 3.041 A 0.028 0.028 0 0 0 8.013 3.043 A 0.026 0.026 0 0 0 8.031 3.035 A 0.022 0.022 0 0 0 8.035 3.03 Q 8.037 3.026 8.038 3.021 A 0.046 0.046 0 0 0 8.039 3.013 A 0.051 0.051 0 0 0 8.039 3.008 Q 8.038 3.004 8.037 3 A 0.022 0.022 0 0 0 8.031 2.991 A 0.026 0.026 0 0 0 8.013 2.984 A 0.034 0.034 0 0 0 8.011 2.984 A 0.026 0.026 0 0 0 7.994 2.991 A 0.021 0.021 0 0 0 7.989 2.997 Q 7.988 3.001 7.987 3.005 Z" id="right_labelLayer" stroke="#777777" fill="#777777" style="stroke:#777777;fill:#777777" vector-effect="non-scaling-stroke"/><path d="M 12.43 0.236 L 12.43 0.668 L 12.194 0.668 L 12.194 1.14 L 12.43 1.14 L 12.43 1.612 L 12.194 1.612 L 12.194 2.084 L 12.43 2.084 L 12.43 2.556 L 12.194 2.556 L 12.194 3.028 L 12.43 3.028 L 12.43 3.5 L 12.194 3.5 L 12.194 3.972 L 12.43 3.972 L 12.43 4.444 L 12.194 4.444 L 12.194 4.916 L 12.43 4.916 L 12.43 5.388 L 12.194 5.388 L 12.194 5.86 L 12.43 5.86 L 12.43 6.332 L 12.194 6.332 L 12.194 6.804 L 12.43 6.804 L 12.43 7.236 L 12.778 7.236 L 12.778 7.472 L 13.25 7.472 L 13.25 7.236 L 13.722 7.236 L 13.722 7.472 L 14.194 7.472 L 14.194 7.236 L 14.666 7.236 L 14.666 7.472 L 15.138 7.472 L 15.138 7.236 L 15.61 7.236 L 15.61 7.472 L 16.082 7.472 L 16.082 7.236 L 16.43 7.236 L 16.43 6.804 L 16.666 6.804 L 16.666 6.332 L 16.43 6.332 L 16.43 5.86 L 16.666 5.86 L 16.666 5.388 L 16.43 5.388 L 16.43 4.916 L 16.666 4.916 L 16.666 4.444 L 16.43 4.444 L 16.43 3.972 L 16.666 3.972 L 16.666 3.5 L 16.43 3.5 L 16.43 3.028 L 16.666 3.028 L 16.666 2.556 L 16.43 2.556 L 16.43 2.084 L 16.666 2.084 L 16.666 1.612 L 16.43 1.612 L 16.43 1.14 L 16.666 1.14 L 16.666 0.668 L 16.43 0.668 L 16.43 0.236 L 16.082 0.236 L 16.082 0 L 15.61 0 L 15.61 0.236 L 15.138 0.236 L 15.138 0 L 14.666 0 L 14.666 0.236 L 14.194 0.236 L 14.194 0 L 13.722 0 L 13.722 0.236 L 13.25 0.236 L 13.25 0 L 12.778 0 L 12.778 0.236 L 12.43 0.236 Z" id="bottom_outsideCutPath" stroke="#FF0000" stroke-width="0.1" style="stroke:#FF0000;stroke-width:0.1" vector-effect="non-scaling-stroke"/><path d="M 15.901 4.071 L 15.829 4.071 L 15.829 3.76 A 0.214 0.214 0 0 0 15.827 3.729 Q 15.822 3.694 15.804 3.674 Q 15.783 3.649 15.741 3.646 A 0.168 0.168 0 0 0 15.728 3.646 A 0.187 0.187 0 0 0 15.69 3.649 Q 15.651 3.657 15.628 3.684 A 0.12 0.12 0 0 0 15.608 3.721 Q 15.602 3.739 15.599 3.76 A 0.319 0.319 0 0 0 15.596 3.803 L 15.596 4.071 L 15.524 4.071 L 15.524 3.76 A 0.214 0.214 0 0 0 15.521 3.729 Q 15.516 3.694 15.499 3.674 Q 15.475 3.646 15.423 3.646 A 0.18 0.18 0 0 0 15.385 3.649 Q 15.362 3.654 15.345 3.665 A 0.095 0.095 0 0 0 15.323 3.686 A 0.122 0.122 0 0 0 15.305 3.721 Q 15.291 3.759 15.291 3.82 L 15.291 4.071 L 15.219 4.071 L 15.219 3.593 L 15.278 3.593 L 15.289 3.658 L 15.293 3.658 Q 15.313 3.623 15.351 3.604 A 0.172 0.172 0 0 1 15.419 3.585 A 0.208 0.208 0 0 1 15.434 3.584 Q 15.504 3.584 15.544 3.615 A 0.124 0.124 0 0 1 15.581 3.665 L 15.585 3.665 A 0.151 0.151 0 0 1 15.642 3.609 A 0.182 0.182 0 0 1 15.647 3.606 A 0.183 0.183 0 0 1 15.714 3.585 A 0.229 0.229 0 0 1 15.739 3.584 Q 15.794 3.584 15.83 3.603 A 0.119 0.119 0 0 1 15.861 3.626 A 0.125 0.125 0 0 1 15.888 3.67 Q 15.895 3.689 15.898 3.713 A 0.333 0.333 0 0 1 15.901 3.759 L 15.901 4.071 Z M 13.031 4.01 L 13.026 4.01 L 13.011 4.071 L 12.959 4.071 L 12.959 3.392 L 13.031 3.392 L 13.031 3.557 A 1.512 1.512 0 0 1 13.03 3.608 Q 13.03 3.632 13.028 3.654 A 0.908 0.908 0 0 1 13.028 3.657 L 13.031 3.657 A 0.165 0.165 0 0 1 13.151 3.587 A 0.248 0.248 0 0 1 13.181 3.585 A 0.222 0.222 0 0 1 13.244 3.593 A 0.166 0.166 0 0 1 13.328 3.649 A 0.214 0.214 0 0 1 13.365 3.721 Q 13.38 3.769 13.38 3.832 Q 13.38 3.95 13.328 4.015 A 0.172 0.172 0 0 1 13.206 4.079 A 0.246 0.246 0 0 1 13.181 4.08 A 0.22 0.22 0 0 1 13.126 4.073 A 0.191 0.191 0 0 1 13.096 4.063 A 0.161 0.161 0 0 1 13.031 4.01 Z M 14.267 4.012 L 14.267 4.067 A 0.071 0.071 0 0 1 14.259 4.07 Q 14.25 4.073 14.237 4.076 A 0.271 0.271 0 0 1 14.232 4.076 A 0.314 0.314 0 0 1 14.212 4.079 Q 14.202 4.08 14.194 4.08 A 0.185 0.185 0 0 1 14.191 4.08 A 0.189 0.189 0 0 1 14.135 4.073 Q 14.074 4.054 14.058 3.987 A 0.228 0.228 0 0 1 14.052 3.934 L 14.052 3.649 L 13.984 3.649 L 13.984 3.614 L 14.052 3.584 L 14.083 3.482 L 14.125 3.482 L 14.125 3.593 L 14.264 3.593 L 14.264 3.649 L 14.125 3.649 L 14.125 3.931 A 0.146 0.146 0 0 0 14.127 3.956 Q 14.131 3.981 14.145 3.997 A 0.067 0.067 0 0 0 14.187 4.019 A 0.097 0.097 0 0 0 14.202 4.02 A 0.238 0.238 0 0 0 14.236 4.018 A 0.225 0.225 0 0 0 14.239 4.017 Q 14.256 4.015 14.266 4.012 A 0.109 0.109 0 0 0 14.267 4.012 Z M 14.583 4.012 L 14.583 4.067 A 0.071 0.071 0 0 1 14.574 4.07 Q 14.565 4.073 14.552 4.076 A 0.271 0.271 0 0 1 14.548 4.076 A 0.314 0.314 0 0 1 14.528 4.079 Q 14.518 4.08 14.509 4.08 A 0.185 0.185 0 0 1 14.507 4.08 A 0.189 0.189 0 0 1 14.451 4.073 Q 14.39 4.054 14.374 3.987 A 0.228 0.228 0 0 1 14.368 3.934 L 14.368 3.649 L 14.299 3.649 L 14.299 3.614 L 14.368 3.584 L 14.399 3.482 L 14.44 3.482 L 14.44 3.593 L 14.579 3.593 L 14.579 3.649 L 14.44 3.649 L 14.44 3.931 A 0.146 0.146 0 0 0 14.443 3.956 Q 14.447 3.981 14.461 3.997 A 0.067 0.067 0 0 0 14.502 4.019 A 0.097 0.097 0 0 0 14.517 4.02 A 0.238 0.238 0 0 0 14.552 4.018 A 0.225 0.225 0 0 0 14.554 4.017 Q 14.572 4.015 14.582 4.012 A 0.109 0.109 0 0 0 14.583 4.012 Z M 13.913 3.904 A 0.374 0.374 0 0 0 13.92 3.832 A 0.426 0.426 0 0 0 13.92 3.82 Q 13.917 3.714 13.861 3.651 A 0.19 0.19 0 0 0 13.773 3.594 A 0.244 0.244 0 0 0 13.701 3.584 A 0.282 0.282 0 0 0 13.651 3.588 A 0.192 0.192 0 0 0 13.539 3.649 Q 13.48 3.715 13.48 3.832 A 0.363 0.363 0 0 0 13.485 3.89 A 0.268 0.268 0 0 0 13.507 3.964 A 0.238 0.238 0 0 0 13.512 3.974 A 0.196 0.196 0 0 0 13.584 4.05 A 0.202 0.202 0 0 0 13.63 4.071 A 0.233 0.233 0 0 0 13.698 4.08 A 0.281 0.281 0 0 0 13.747 4.076 A 0.193 0.193 0 0 0 13.861 4.014 A 0.202 0.202 0 0 0 13.885 3.981 Q 13.905 3.948 13.913 3.904 Z M 15.085 3.904 A 0.374 0.374 0 0 0 15.092 3.832 A 0.426 0.426 0 0 0 15.091 3.82 Q 15.089 3.714 15.032 3.651 A 0.19 0.19 0 0 0 14.944 3.594 A 0.244 0.244 0 0 0 14.873 3.584 A 0.282 0.282 0 0 0 14.822 3.588 A 0.192 0.192 0 0 0 14.71 3.649 Q 14.652 3.715 14.652 3.832 A 0.363 0.363 0 0 0 14.656 3.89 A 0.268 0.268 0 0 0 14.679 3.964 A 0.238 0.238 0 0 0 14.684 3.974 A 0.196 0.196 0 0 0 14.756 4.05 A 0.202 0.202 0 0 0 14.802 4.071 A 0.233 0.233 0 0 0 14.87 4.08 A 0.281 0.281 0 0 0 14.919 4.076 A 0.193 0.193 0 0 0 15.033 4.014 A 0.202 0.202 0 0 0 15.057 3.981 Q 15.076 3.948 15.085 3.904 Z M 13.555 3.832 A 0.367 0.367 0 0 0 13.559 3.884 Q 13.567 3.938 13.592 3.971 A 0.119 0.119 0 0 0 13.669 4.017 A 0.18 0.18 0 0 0 13.7 4.019 A 0.168 0.168 0 0 0 13.744 4.014 A 0.117 0.117 0 0 0 13.808 3.972 A 0.156 0.156 0 0 0 13.832 3.924 Q 13.839 3.903 13.842 3.876 A 0.382 0.382 0 0 0 13.845 3.832 Q 13.845 3.773 13.83 3.733 A 0.149 0.149 0 0 0 13.808 3.693 A 0.119 0.119 0 0 0 13.734 3.649 A 0.183 0.183 0 0 0 13.699 3.646 A 0.173 0.173 0 0 0 13.656 3.651 A 0.115 0.115 0 0 0 13.591 3.692 Q 13.565 3.726 13.558 3.783 A 0.383 0.383 0 0 0 13.555 3.832 Z M 14.727 3.832 A 0.367 0.367 0 0 0 14.73 3.884 Q 14.738 3.938 14.764 3.971 A 0.119 0.119 0 0 0 14.841 4.017 A 0.18 0.18 0 0 0 14.872 4.019 A 0.168 0.168 0 0 0 14.916 4.014 A 0.117 0.117 0 0 0 14.98 3.972 A 0.156 0.156 0 0 0 15.004 3.924 Q 15.011 3.903 15.014 3.876 A 0.382 0.382 0 0 0 15.017 3.832 Q 15.017 3.773 15.001 3.733 A 0.149 0.149 0 0 0 14.98 3.693 A 0.119 0.119 0 0 0 14.905 3.649 A 0.183 0.183 0 0 0 14.871 3.646 A 0.173 0.173 0 0 0 14.828 3.651 A 0.115 0.115 0 0 0 14.763 3.692 Q 14.737 3.726 14.73 3.783 A 0.383 0.383 0 0 0 14.727 3.832 Z M 13.171 3.646 A 0.204 0.204 0 0 0 13.131 3.649 Q 13.109 3.654 13.092 3.664 A 0.096 0.096 0 0 0 13.064 3.688 A 0.124 0.124 0 0 0 13.046 3.722 Q 13.031 3.764 13.031 3.832 Q 13.031 3.933 13.065 3.976 Q 13.095 4.015 13.158 4.019 A 0.233 0.233 0 0 0 13.173 4.019 A 0.145 0.145 0 0 0 13.214 4.014 A 0.104 0.104 0 0 0 13.272 3.971 A 0.166 0.166 0 0 0 13.293 3.926 Q 13.299 3.905 13.302 3.879 A 0.415 0.415 0 0 0 13.305 3.831 A 0.428 0.428 0 0 0 13.302 3.782 Q 13.296 3.729 13.276 3.696 A 0.12 0.12 0 0 0 13.272 3.691 A 0.106 0.106 0 0 0 13.205 3.649 A 0.168 0.168 0 0 0 13.171 3.646 Z" id="bottom_labelLayer" stroke="#777777" fill="#777777" style="stroke:#777777;fill:#777777" vector-effect="non-scaling-stroke"/></g></svg>