<svg width="16.666in" height="7.472in" viewBox="0 0 16.666 7.472" xmlns="http://www.w3.org/2000/svg" version="1.1" preserveAspectRatio="xMidYMid meet"><g id="svgGroup" stroke-linecap="round" fill-rule="evenodd" font-size="9pt" stroke="#000" stroke-width="0.25mm" fill="none" style="stroke:#000;stroke-width:0.25mm;fill:none"><path d="M 0 6.236 L 0 6.618 L 0.236 6.618 L 0.236 7.09 L 0 7.09 L 0 7.472 L 0.584 7.472 L 0.584 7.236 L 1.056 7.236 L 1.056 7.472 L 1.528 7.472 L 1.528 7.236 L 2 7.236 L 2 7.472 L 2.472 7.472 L 2.472 7.236 L 2.944 7.236 L 2.944 7.472 L 3.416 7.472 L 3.416 7.236 L 3.888 7.236 L 3.888 7.472 L 4.36 7.472 L 4.472 7.472 L 4.472 7.09 L 4.236 7.09 L 4.236 6.618 L 4.472 6.618 L 4.472 6.236 L 0 6.236 Z" id="front_outsideCutPath" stroke="#FF0000" stroke-width="0.1" style="stroke:#FF0000;stroke-width:0.1" vector-effect="non-scaling-stroke"/><path d="M 2.416 6.947 L 2.396 6.947 L 2.396 6.862 A 0.057 0.057 0 0 0 2.395 6.853 Q 2.395 6.848 2.393 6.844 A 0.024 0.024 0 0 0 2.389 6.838 Q 2.383 6.831 2.371 6.83 A 0.053 0.053 0 0 0 2.366 6.83 Q 2.352 6.83 2.343 6.835 A 0.028 0.028 0 0 0 2.335 6.841 A 0.033 0.033 0 0 0 2.33 6.851 Q 2.326 6.86 2.326 6.874 A 0.128 0.128 0 0 0 2.326 6.878 L 2.326 6.947 L 2.306 6.947 L 2.306 6.815 L 2.322 6.815 L 2.325 6.833 A 0.041 0.041 0 0 1 2.342 6.819 A 0.049 0.049 0 0 1 2.343 6.818 A 0.054 0.054 0 0 1 2.363 6.813 A 0.066 0.066 0 0 1 2.368 6.813 A 0.079 0.079 0 0 1 2.382 6.814 Q 2.389 6.815 2.395 6.818 A 0.036 0.036 0 0 1 2.404 6.824 Q 2.413 6.833 2.415 6.85 A 0.087 0.087 0 0 1 2.416 6.861 L 2.416 6.947 Z M 2.031 6.815 L 2.031 6.831 L 1.998 6.831 L 1.998 6.947 L 1.978 6.947 L 1.978 6.831 L 1.954 6.831 L 1.954 6.822 L 1.978 6.814 L 1.978 6.807 A 0.081 0.081 0 0 1 1.979 6.789 Q 1.985 6.763 2.009 6.759 A 0.061 0.061 0 0 1 2.02 6.758 A 0.065 0.065 0 0 1 2.029 6.759 Q 2.036 6.76 2.045 6.762 L 2.04 6.778 A 0.097 0.097 0 0 0 2.032 6.776 Q 2.028 6.775 2.025 6.775 A 0.043 0.043 0 0 0 2.02 6.775 A 0.027 0.027 0 0 0 2.013 6.775 A 0.017 0.017 0 0 0 2.003 6.782 Q 1.998 6.789 1.998 6.803 A 0.095 0.095 0 0 0 1.998 6.807 L 1.998 6.815 L 2.031 6.815 Z M 2.518 6.931 L 2.518 6.946 A 0.02 0.02 0 0 1 2.516 6.947 Q 2.513 6.948 2.509 6.949 Q 2.503 6.95 2.498 6.95 A 0.052 0.052 0 0 1 2.482 6.948 Q 2.465 6.942 2.46 6.924 A 0.063 0.063 0 0 1 2.459 6.909 L 2.459 6.831 L 2.44 6.831 L 2.44 6.821 L 2.459 6.813 L 2.467 6.784 L 2.479 6.784 L 2.479 6.815 L 2.517 6.815 L 2.517 6.831 L 2.479 6.831 L 2.479 6.908 A 0.04 0.04 0 0 0 2.479 6.916 Q 2.48 6.919 2.482 6.923 A 0.019 0.019 0 0 0 2.484 6.927 A 0.019 0.019 0 0 0 2.496 6.933 A 0.027 0.027 0 0 0 2.5 6.933 Q 2.505 6.933 2.51 6.933 A 0.07 0.07 0 0 0 2.516 6.931 A 0.042 0.042 0 0 0 2.518 6.931 Z M 2.132 6.814 L 2.129 6.833 Q 2.122 6.831 2.116 6.831 A 0.047 0.047 0 0 0 2.114 6.831 A 0.035 0.035 0 0 0 2.089 6.842 A 0.047 0.047 0 0 0 2.087 6.844 A 0.046 0.046 0 0 0 2.076 6.87 A 0.061 0.061 0 0 0 2.075 6.876 L 2.075 6.947 L 2.055 6.947 L 2.055 6.815 L 2.072 6.815 L 2.074 6.84 A 0.068 0.068 0 0 1 2.083 6.829 A 0.052 0.052 0 0 1 2.093 6.82 Q 2.103 6.813 2.116 6.813 A 0.092 0.092 0 0 1 2.124 6.813 A 0.067 0.067 0 0 1 2.132 6.814 Z M 2.269 6.901 A 0.104 0.104 0 0 0 2.27 6.881 Q 2.27 6.85 2.254 6.831 A 0.052 0.052 0 0 0 2.23 6.815 A 0.067 0.067 0 0 0 2.21 6.813 A 0.078 0.078 0 0 0 2.196 6.814 A 0.053 0.053 0 0 0 2.165 6.831 A 0.055 0.055 0 0 0 2.158 6.84 Q 2.153 6.849 2.151 6.861 A 0.104 0.104 0 0 0 2.149 6.881 A 0.1 0.1 0 0 0 2.15 6.897 A 0.074 0.074 0 0 0 2.156 6.918 A 0.066 0.066 0 0 0 2.158 6.92 A 0.054 0.054 0 0 0 2.178 6.941 A 0.056 0.056 0 0 0 2.19 6.947 A 0.064 0.064 0 0 0 2.209 6.95 A 0.078 0.078 0 0 0 2.223 6.949 A 0.053 0.053 0 0 0 2.254 6.932 A 0.056 0.056 0 0 0 2.261 6.922 Q 2.266 6.913 2.269 6.901 Z M 2.17 6.881 A 0.101 0.101 0 0 0 2.171 6.896 Q 2.172 6.903 2.174 6.909 A 0.042 0.042 0 0 0 2.18 6.92 A 0.033 0.033 0 0 0 2.201 6.932 A 0.05 0.05 0 0 0 2.21 6.933 A 0.047 0.047 0 0 0 2.222 6.931 A 0.032 0.032 0 0 0 2.24 6.92 A 0.043 0.043 0 0 0 2.246 6.907 Q 2.248 6.901 2.249 6.893 A 0.106 0.106 0 0 0 2.25 6.881 A 0.1 0.1 0 0 0 2.249 6.867 Q 2.247 6.852 2.24 6.843 A 0.033 0.033 0 0 0 2.219 6.831 A 0.051 0.051 0 0 0 2.209 6.83 A 0.048 0.048 0 0 0 2.198 6.831 A 0.032 0.032 0 0 0 2.18 6.843 Q 2.172 6.852 2.17 6.868 A 0.106 0.106 0 0 0 2.17 6.881 Z M 2.51 6.932 Q 2.512 6.932 2.513 6.932" id="front_labelLayer" stroke="#777777" fill="#777777" style="stroke:#777777;fill:#777777" vector-effect="non-scaling-stroke"/><path d="M 4.833 6.236 L 4.833 6.618 L 4.597 6.618 L 4.597 7.09 L 4.833 7.09 L 4.833 7.472 L 5.265 7.472 L 5.265 7.236 L 5.737 7.236 L 5.737 7.472 L 6.209 7.472 L 6.209 7.236 L 6.681 7.236 L 6.681 7.472 L 7.153 7.472 L 7.153 7.236 L 7.625 7.236 L 7.625 7.472 L 8.097 7.472 L 8.097 7.236 L 8.569 7.236 L 8.569 7.472 L 9.041 7.472 L 9.041 7.236 L 9.513 7.236 L 9.513 7.472 L 9.985 7.472 L 9.985 7.236 L 10.457 7.236 L 10.457 7.472 L 10.929 7.472 L 10.929 7.236 L 11.401 7.236 L 11.401 7.472 L 11.833 7.472 L 11.833 7.09 L 12.069 7.09 L 12.069 6.618 L 11.833 6.618 L 11.833 6.236 L 4.833 6.236 Z" id="left_outsideCutPath" stroke="#FF0000" stroke-width="0.1" style="stroke:#FF0000;stroke-width:0.1" vector-effect="non-scaling-stroke"/><path d="M 8.421 6.815 L 8.421 6.831 L 8.387 6.831 L 8.387 6.947 L 8.367 6.947 L 8.367 6.831 L 8.344 6.831 L 8.344 6.822 L 8.367 6.814 L 8.367 6.807 A 0.081 0.081 0 0 1 8.369 6.789 Q 8.375 6.763 8.399 6.759 A 0.061 0.061 0 0 1 8.41 6.758 A 0.065 0.065 0 0 1 8.419 6.759 Q 8.426 6.76 8.434 6.762 L 8.429 6.778 A 0.097 0.097 0 0 0 8.422 6.776 Q 8.418 6.775 8.415 6.775 A 0.043 0.043 0 0 0 8.409 6.775 A 0.027 0.027 0 0 0 8.403 6.775 A 0.017 0.017 0 0 0 8.393 6.782 Q 8.388 6.789 8.387 6.803 A 0.095 0.095 0 0 0 8.387 6.807 L 8.387 6.815 L 8.421 6.815 Z M 8.327 6.872 L 8.327 6.885 L 8.236 6.885 Q 8.237 6.908 8.248 6.92 A 0.036 0.036 0 0 0 8.267 6.931 A 0.055 0.055 0 0 0 8.279 6.932 A 0.106 0.106 0 0 0 8.319 6.924 A 0.12 0.12 0 0 0 8.321 6.923 L 8.321 6.941 A 0.12 0.12 0 0 1 8.311 6.945 A 0.092 0.092 0 0 1 8.301 6.948 A 0.084 0.084 0 0 1 8.293 6.949 Q 8.289 6.95 8.284 6.95 A 0.163 0.163 0 0 1 8.279 6.95 A 0.078 0.078 0 0 1 8.259 6.947 A 0.055 0.055 0 0 1 8.232 6.932 A 0.059 0.059 0 0 1 8.218 6.906 Q 8.216 6.897 8.215 6.886 A 0.114 0.114 0 0 1 8.215 6.882 A 0.105 0.105 0 0 1 8.217 6.861 Q 8.221 6.844 8.231 6.831 A 0.051 0.051 0 0 1 8.268 6.813 A 0.071 0.071 0 0 1 8.273 6.813 A 0.061 0.061 0 0 1 8.291 6.815 A 0.046 0.046 0 0 1 8.313 6.829 A 0.056 0.056 0 0 1 8.325 6.855 A 0.082 0.082 0 0 1 8.327 6.872 Z M 8.506 6.931 L 8.506 6.946 A 0.02 0.02 0 0 1 8.504 6.947 Q 8.501 6.948 8.496 6.949 Q 8.49 6.95 8.486 6.95 A 0.052 0.052 0 0 1 8.469 6.948 Q 8.453 6.942 8.448 6.924 A 0.063 0.063 0 0 1 8.447 6.909 L 8.447 6.831 L 8.428 6.831 L 8.428 6.821 L 8.447 6.813 L 8.455 6.784 L 8.467 6.784 L 8.467 6.815 L 8.505 6.815 L 8.505 6.831 L 8.467 6.831 L 8.467 6.908 A 0.04 0.04 0 0 0 8.467 6.916 Q 8.468 6.919 8.469 6.923 A 0.019 0.019 0 0 0 8.472 6.927 A 0.019 0.019 0 0 0 8.484 6.933 A 0.027 0.027 0 0 0 8.488 6.933 Q 8.493 6.933 8.497 6.933 A 0.07 0.07 0 0 0 8.504 6.931 A 0.042 0.042 0 0 0 8.506 6.931 Z M 8.18 6.76 L 8.18 6.947 L 8.16 6.947 L 8.16 6.76 L 8.18 6.76 Z M 8.236 6.869 L 8.306 6.869 A 0.068 0.068 0 0 0 8.305 6.858 Q 8.303 6.846 8.297 6.84 A 0.027 0.027 0 0 0 8.281 6.83 A 0.041 0.041 0 0 0 8.273 6.829 A 0.039 0.039 0 0 0 8.262 6.831 A 0.031 0.031 0 0 0 8.248 6.84 Q 8.239 6.849 8.237 6.865 A 0.076 0.076 0 0 0 8.236 6.869 Z M 8.498 6.932 Q 8.5 6.932 8.501 6.932" id="left_labelLayer" stroke="#777777" fill="#777777" style="stroke:#777777;fill:#777777" vector-effect="non-scaling-stroke"/><path d="M 0 4.875 L 0 5.257 L 0.236 5.257 L 0.236 5.729 L 0 5.729 L 0 6.111 L 0.584 6.111 L 0.584 5.875 L 1.056 5.875 L 1.056 6.111 L 1.528 6.111 L 1.528 5.875 L 2 5.875 L 2 6.111 L 2.472 6.111 L 2.472 5.875 L 2.944 5.875 L 2.944 6.111 L 3.416 6.111 L 3.416 5.875 L 3.888 5.875 L 3.888 6.111 L 4.36 6.111 L 4.472 6.111 L 4.472 5.729 L 4.236 5.729 L 4.236 5.257 L 4.472 5.257 L 4.472 4.875 L 0 4.875 Z" id="back_outsideCutPath" stroke="#FF0000" stroke-width="0.1" style="stroke:#FF0000;stroke-width:0.1" vector-effect="non-scaling-stroke"/><path d="M 2.422 5.499 L 2.465 5.453 L 2.489 5.453 L 2.435 5.51 L 2.492 5.586 L 2.468 5.586 L 2.421 5.523 L 2.406 5.536 L 2.406 5.586 L 2.386 5.586 L 2.386 5.398 L 2.406 5.398 L 2.406 5.497 A 0.133 0.133 0 0 1 2.406 5.501 Q 2.406 5.507 2.405 5.517 Q 2.411 5.511 2.422 5.499 Z M 2 5.569 L 1.998 5.569 L 1.994 5.586 L 1.98 5.586 L 1.98 5.398 L 2 5.398 L 2 5.444 A 0.417 0.417 0 0 1 2 5.458 A 0.301 0.301 0 0 1 1.999 5.47 A 0.046 0.046 0 0 1 2.033 5.452 A 0.068 0.068 0 0 1 2.041 5.451 A 0.061 0.061 0 0 1 2.059 5.454 A 0.046 0.046 0 0 1 2.082 5.469 Q 2.093 5.483 2.096 5.507 A 0.129 0.129 0 0 1 2.096 5.519 Q 2.096 5.542 2.089 5.558 A 0.056 0.056 0 0 1 2.082 5.57 A 0.047 0.047 0 0 1 2.048 5.588 A 0.068 0.068 0 0 1 2.041 5.588 A 0.061 0.061 0 0 1 2.026 5.586 A 0.053 0.053 0 0 1 2.018 5.583 A 0.044 0.044 0 0 1 2 5.569 Z M 2.227 5.586 L 2.213 5.586 L 2.209 5.567 Q 2.201 5.576 2.194 5.58 A 0.037 0.037 0 0 1 2.188 5.584 A 0.046 0.046 0 0 1 2.178 5.587 Q 2.174 5.588 2.168 5.588 A 0.09 0.09 0 0 1 2.163 5.588 A 0.061 0.061 0 0 1 2.151 5.587 Q 2.14 5.585 2.132 5.578 A 0.033 0.033 0 0 1 2.123 5.561 A 0.05 0.05 0 0 1 2.121 5.549 A 0.035 0.035 0 0 1 2.141 5.516 Q 2.156 5.509 2.181 5.507 A 0.196 0.196 0 0 1 2.185 5.507 L 2.208 5.506 L 2.208 5.498 A 0.058 0.058 0 0 0 2.207 5.49 Q 2.206 5.48 2.201 5.475 A 0.02 0.02 0 0 0 2.193 5.47 Q 2.19 5.469 2.185 5.468 A 0.049 0.049 0 0 0 2.18 5.468 Q 2.166 5.468 2.15 5.474 A 0.134 0.134 0 0 0 2.142 5.478 L 2.136 5.463 A 0.092 0.092 0 0 1 2.154 5.455 A 0.105 0.105 0 0 1 2.158 5.454 Q 2.169 5.451 2.181 5.451 Q 2.196 5.451 2.206 5.455 A 0.034 0.034 0 0 1 2.216 5.462 Q 2.225 5.47 2.227 5.486 A 0.079 0.079 0 0 1 2.227 5.495 L 2.227 5.586 Z M 2.357 5.458 L 2.351 5.475 Q 2.344 5.472 2.336 5.47 Q 2.328 5.469 2.322 5.469 A 0.044 0.044 0 0 0 2.304 5.472 Q 2.285 5.48 2.283 5.509 A 0.111 0.111 0 0 0 2.282 5.52 A 0.097 0.097 0 0 0 2.283 5.534 Q 2.284 5.541 2.286 5.547 A 0.042 0.042 0 0 0 2.292 5.558 A 0.032 0.032 0 0 0 2.313 5.57 A 0.048 0.048 0 0 0 2.321 5.571 A 0.084 0.084 0 0 0 2.344 5.567 A 0.104 0.104 0 0 0 2.355 5.563 L 2.355 5.581 Q 2.344 5.587 2.327 5.588 A 0.11 0.11 0 0 1 2.322 5.588 A 0.075 0.075 0 0 1 2.303 5.586 A 0.051 0.051 0 0 1 2.277 5.57 A 0.058 0.058 0 0 1 2.265 5.548 Q 2.262 5.54 2.262 5.529 A 0.121 0.121 0 0 1 2.261 5.52 A 0.111 0.111 0 0 1 2.263 5.5 Q 2.265 5.489 2.27 5.48 A 0.055 0.055 0 0 1 2.277 5.469 A 0.052 0.052 0 0 1 2.306 5.453 A 0.079 0.079 0 0 1 2.323 5.451 A 0.09 0.09 0 0 1 2.342 5.453 Q 2.348 5.454 2.353 5.456 A 0.04 0.04 0 0 1 2.357 5.458 Z M 2.038 5.468 A 0.056 0.056 0 0 0 2.028 5.469 Q 2.021 5.47 2.017 5.473 A 0.027 0.027 0 0 0 2.009 5.48 A 0.034 0.034 0 0 0 2.004 5.489 Q 2 5.501 2 5.519 Q 2 5.543 2.006 5.555 A 0.03 0.03 0 0 0 2.009 5.559 Q 2.017 5.57 2.035 5.571 A 0.064 0.064 0 0 0 2.039 5.571 A 0.04 0.04 0 0 0 2.05 5.57 A 0.029 0.029 0 0 0 2.066 5.558 A 0.046 0.046 0 0 0 2.072 5.546 Q 2.074 5.54 2.075 5.533 A 0.115 0.115 0 0 0 2.075 5.519 A 0.118 0.118 0 0 0 2.075 5.506 Q 2.073 5.49 2.066 5.481 Q 2.057 5.468 2.038 5.468 Z M 2.207 5.533 L 2.207 5.521 L 2.187 5.521 Q 2.167 5.522 2.157 5.527 A 0.031 0.031 0 0 0 2.153 5.529 A 0.021 0.021 0 0 0 2.143 5.544 A 0.032 0.032 0 0 0 2.142 5.549 Q 2.142 5.56 2.149 5.566 A 0.022 0.022 0 0 0 2.157 5.57 Q 2.16 5.571 2.164 5.571 A 0.045 0.045 0 0 0 2.167 5.572 A 0.055 0.055 0 0 0 2.179 5.57 Q 2.19 5.568 2.197 5.561 A 0.034 0.034 0 0 0 2.206 5.545 A 0.051 0.051 0 0 0 2.207 5.533 Z" id="back_labelLayer" stroke="#777777" fill="#777777" style="stroke:#777777;fill:#777777" vector-effect="non-scaling-stroke"/><path d="M 4.833 4.875 L 4.833 5.257 L 4.597 5.257 L 4.597 5.729 L 4.833 5.729 L 4.833 6.111 L 5.265 6.111 L 5.265 5.875 L 5.737 5.875 L 5.737 6.111 L 6.209 6.111 L 6.209 5.875 L 6.681 5.875 L 6.681 6.111 L 7.153 6.111 L 7.153 5.875 L 7.625 5.875 L 7.625 6.111 L 8.097 6.111 L 8.097 5.875 L 8.569 5.875 L 8.569 6.111 L 9.041 6.111 L 9.041 5.875 L 9.513 5.875 L 9.513 6.111 L 9.985 6.111 L 9.985 5.875 L 10.457 5.875 L 10.457 6.111 L 10.929 6.111 L 10.929 5.875 L 11.401 5.875 L 11.401 6.111 L 11.833 6.111 L 11.833 5.729 L 12.069 5.729 L 12.069 5.257 L 11.833 5.257 L 11.833 4.875 L 4.833 4.875 Z" id="right_outsideCutPath" stroke="#FF0000" stroke-width="0.1" style="stroke:#FF0000;stroke-width:0.1" vector-effect="non-scaling-stroke"/><path d="M 8.487 5.557 L 8.467 5.557 L 8.467 5.472 A 0.057 0.057 0 0 0 8.466 5.463 Q 8.465 5.458 8.464 5.454 A 0.024 0.024 0 0 0 8.459 5.447 Q 8.453 5.441 8.442 5.44 A 0.053 0.053 0 0 0 8.436 5.44 A 0.061 0.061 0 0 0 8.425 5.441 Q 8.413 5.443 8.406 5.451 A 0.033 0.033 0 0 0 8.4 5.461 Q 8.397 5.47 8.396 5.484 A 0.129 0.129 0 0 0 8.396 5.488 L 8.396 5.557 L 8.376 5.557 L 8.376 5.369 L 8.396 5.369 L 8.396 5.426 A 0.18 0.18 0 0 1 8.396 5.433 Q 8.396 5.439 8.395 5.443 L 8.396 5.443 A 0.04 0.04 0 0 1 8.41 5.43 A 0.049 0.049 0 0 1 8.413 5.428 A 0.051 0.051 0 0 1 8.43 5.423 A 0.065 0.065 0 0 1 8.438 5.423 A 0.081 0.081 0 0 1 8.452 5.424 Q 8.459 5.425 8.465 5.428 A 0.036 0.036 0 0 1 8.475 5.434 A 0.035 0.035 0 0 1 8.483 5.448 Q 8.485 5.453 8.486 5.46 A 0.087 0.087 0 0 1 8.487 5.471 L 8.487 5.557 Z M 8.303 5.425 L 8.349 5.425 L 8.349 5.438 L 8.324 5.44 A 0.033 0.033 0 0 1 8.327 5.445 Q 8.329 5.447 8.33 5.449 A 0.062 0.062 0 0 1 8.331 5.452 Q 8.333 5.458 8.333 5.467 A 0.046 0.046 0 0 1 8.331 5.481 A 0.037 0.037 0 0 1 8.32 5.498 A 0.044 0.044 0 0 1 8.302 5.507 Q 8.296 5.509 8.288 5.509 A 0.087 0.087 0 0 1 8.283 5.51 Q 8.278 5.51 8.272 5.509 Q 8.265 5.512 8.262 5.517 A 0.015 0.015 0 0 0 8.26 5.526 A 0.01 0.01 0 0 0 8.26 5.529 A 0.008 0.008 0 0 0 8.264 5.533 A 0.014 0.014 0 0 0 8.267 5.535 Q 8.27 5.536 8.275 5.536 A 0.076 0.076 0 0 0 8.279 5.536 L 8.303 5.536 A 0.082 0.082 0 0 1 8.315 5.537 Q 8.328 5.539 8.336 5.545 A 0.029 0.029 0 0 1 8.347 5.564 A 0.044 0.044 0 0 1 8.347 5.572 A 0.043 0.043 0 0 1 8.345 5.587 A 0.037 0.037 0 0 1 8.33 5.605 Q 8.317 5.613 8.297 5.616 A 0.159 0.159 0 0 1 8.278 5.617 Q 8.252 5.617 8.238 5.607 Q 8.225 5.598 8.224 5.582 A 0.042 0.042 0 0 1 8.224 5.58 A 0.031 0.031 0 0 1 8.232 5.559 A 0.035 0.035 0 0 1 8.244 5.55 A 0.05 0.05 0 0 1 8.254 5.547 A 0.021 0.021 0 0 1 8.246 5.54 A 0.019 0.019 0 0 1 8.242 5.53 A 0.023 0.023 0 0 1 8.242 5.528 A 0.023 0.023 0 0 1 8.243 5.521 A 0.02 0.02 0 0 1 8.246 5.516 A 0.029 0.029 0 0 1 8.249 5.512 Q 8.251 5.51 8.254 5.508 A 0.063 0.063 0 0 1 8.258 5.505 A 0.035 0.035 0 0 1 8.242 5.493 A 0.043 0.043 0 0 1 8.241 5.491 A 0.041 0.041 0 0 1 8.235 5.471 A 0.051 0.051 0 0 1 8.235 5.468 Q 8.235 5.446 8.248 5.434 Q 8.261 5.423 8.285 5.423 A 0.077 0.077 0 0 1 8.295 5.423 A 0.058 0.058 0 0 1 8.303 5.425 Z M 8.589 5.541 L 8.589 5.556 A 0.02 0.02 0 0 1 8.586 5.557 Q 8.583 5.558 8.579 5.559 Q 8.573 5.56 8.568 5.56 A 0.052 0.052 0 0 1 8.552 5.558 Q 8.535 5.552 8.531 5.534 A 0.063 0.063 0 0 1 8.529 5.519 L 8.529 5.44 L 8.51 5.44 L 8.51 5.431 L 8.529 5.423 L 8.538 5.394 L 8.549 5.394 L 8.549 5.425 L 8.588 5.425 L 8.588 5.44 L 8.549 5.44 L 8.549 5.518 A 0.04 0.04 0 0 0 8.55 5.525 Q 8.551 5.529 8.552 5.532 A 0.019 0.019 0 0 0 8.555 5.537 A 0.019 0.019 0 0 0 8.566 5.543 A 0.027 0.027 0 0 0 8.571 5.543 Q 8.576 5.543 8.58 5.542 A 0.07 0.07 0 0 0 8.586 5.541 A 0.042 0.042 0 0 0 8.588 5.541 Z M 8.153 5.424 L 8.151 5.443 Q 8.144 5.441 8.138 5.441 A 0.047 0.047 0 0 0 8.136 5.441 A 0.035 0.035 0 0 0 8.111 5.452 A 0.047 0.047 0 0 0 8.109 5.454 A 0.046 0.046 0 0 0 8.098 5.479 A 0.061 0.061 0 0 0 8.097 5.486 L 8.097 5.557 L 8.077 5.557 L 8.077 5.425 L 8.094 5.425 L 8.096 5.449 A 0.068 0.068 0 0 1 8.105 5.439 A 0.052 0.052 0 0 1 8.115 5.43 Q 8.125 5.423 8.138 5.423 A 0.092 0.092 0 0 1 8.146 5.423 A 0.067 0.067 0 0 1 8.153 5.424 Z M 8.198 5.425 L 8.198 5.557 L 8.178 5.557 L 8.178 5.425 L 8.198 5.425 Z M 8.296 5.554 L 8.272 5.554 A 0.046 0.046 0 0 0 8.264 5.555 Q 8.259 5.556 8.256 5.558 A 0.023 0.023 0 0 0 8.251 5.561 Q 8.243 5.567 8.243 5.579 Q 8.243 5.589 8.251 5.595 A 0.024 0.024 0 0 0 8.253 5.596 A 0.032 0.032 0 0 0 8.26 5.599 Q 8.268 5.601 8.278 5.601 A 0.135 0.135 0 0 0 8.292 5.601 Q 8.307 5.599 8.316 5.594 Q 8.328 5.586 8.328 5.573 A 0.027 0.027 0 0 0 8.327 5.568 Q 8.327 5.565 8.325 5.562 A 0.013 0.013 0 0 0 8.321 5.558 Q 8.316 5.555 8.304 5.554 A 0.127 0.127 0 0 0 8.296 5.554 Z M 8.254 5.467 A 0.039 0.039 0 0 0 8.255 5.475 Q 8.256 5.481 8.259 5.484 A 0.021 0.021 0 0 0 8.262 5.488 A 0.026 0.026 0 0 0 8.273 5.494 Q 8.277 5.495 8.281 5.495 A 0.052 0.052 0 0 0 8.284 5.495 A 0.044 0.044 0 0 0 8.295 5.494 Q 8.309 5.49 8.312 5.478 A 0.041 0.041 0 0 0 8.313 5.467 Q 8.313 5.443 8.295 5.438 A 0.044 0.044 0 0 0 8.284 5.437 A 0.042 0.042 0 0 0 8.275 5.438 Q 8.27 5.439 8.266 5.442 A 0.023 0.023 0 0 0 8.262 5.445 A 0.024 0.024 0 0 0 8.256 5.455 Q 8.254 5.46 8.254 5.467 Z M 8.18 5.379 A 0.009 0.009 0 0 0 8.178 5.382 Q 8.177 5.385 8.177 5.389 A 0.024 0.024 0 0 0 8.177 5.391 A 0.01 0.01 0 0 0 8.18 5.399 A 0.011 0.011 0 0 0 8.184 5.402 A 0.013 0.013 0 0 0 8.188 5.402 Q 8.193 5.402 8.197 5.399 A 0.01 0.01 0 0 0 8.199 5.397 Q 8.2 5.394 8.2 5.389 A 0.023 0.023 0 0 0 8.2 5.387 A 0.01 0.01 0 0 0 8.197 5.379 A 0.012 0.012 0 0 0 8.188 5.376 Q 8.183 5.376 8.18 5.379 Z M 8.177 5.395 Q 8.177 5.393 8.177 5.391 M 8.199 5.383 Q 8.2 5.385 8.2 5.387 M 8.581 5.542 Q 8.582 5.542 8.584 5.542" id="right_labelLayer" stroke="#777777" fill="#777777" style="stroke:#777777;fill:#777777" vector-effect="non-scaling-stroke"/><path d="M 12.43 0.236 L 12.43 0.668 L 12.194 0.668 L 12.194 1.14 L 12.43 1.14 L 12.43 1.612 L 12.194 1.612 L 12.194 2.084 L 12.43 2.084 L 12.43 2.556 L 12.194 2.556 L 12.194 3.028 L 12.43 3.028 L 12.43 3.5 L 12.194 3.5 L 12.194 3.972 L 12.43 3.972 L 12.43 4.444 L 12.194 4.444 L 12.194 4.916 L 12.43 4.916 L 12.43 5.388 L 12.194 5.388 L 12.194 5.86 L 12.43 5.86 L 12.43 6.332 L 12.194 6.332 L 12.194 6.804 L 12.43 6.804 L 12.43 7.236 L 12.778 7.236 L 12.778 7.472 L 13.25 7.472 L 13.25 7.236 L 13.722 7.236 L 13.722 7.472 L 14.194 7.472 L 14.194 7.236 L 14.666 7.236 L 14.666 7.472 L 15.138 7.472 L 15.138 7.236 L 15.61 7.236 L 15.61 7.472 L 16.082 7.472 L 16.082 7.236 L 16.43 7.236 L 16.43 6.804 L 16.666 6.804 L 16.666 6.332 L 16.43 6.332 L 16.43 5.86 L 16.666 5.86 L 16.666 5.388 L 16.43 5.388 L 16.43 4.916 L 16.666 4.916 L 16.666 4.444 L 16.43 4.444 L 16.43 3.972 L 16.666 3.972 L 16.666 3.5 L 16.43 3.5 L 16.43 3.028 L 16.666 3.028 L 16.666 2.556 L 16.43 2.556 L 16.43 2.084 L 16.666 2.084 L 16.666 1.612 L 16.43 1.612 L 16.43 1.14 L 16.666 1.14 L 16.666 0.668 L 16.43 0.668 L 16.43 0.236 L 16.082 0.236 L 16.082 0 L 15.61 0 L 15.61 0.236 L 15.138 0.236 L 15.138 0 L 14.666 0 L 14.666 0.236 L 14.194 0.236 L 14.194 0 L 13.722 0 L 13.722 0.236 L 13.25 0.236 L 13.25 0 L 12.778 0 L 12.778 0.236 L 12.43 0.236 Z" id="bottom_outsideCutPath" stroke="#FF0000" stroke-width="0.1" style="stroke:#FF0000;stroke-width:0.1" vector-effect="non-scaling-stroke"/><path d="M 15.901 4.071 L 15.829 4.071 L 15.829 3.76 A 0.214 0.214 0 0 0 15.827 3.729 Q 15.822 3.694 15.804 3.674 Q 15.783 3.649 15.741 3.646 A 0.168 0.168 0 0 0 15.728 3.646 A 0.187 0.187 0 0 0 15.69 3.649 Q 15.651 3.657 15.628 3.684 A 0.12 0.12 0 0 0 15.608 3.721 Q 15.602 3.739 15.599 3.76 A 0.319 0.319 0 0 0 15.596 3.803 L 15.596 4.071 L 15.524 4.071 L 15.524 3.76 A 0.214 0.214 0 0 0 15.521 3.729 Q 15.516 3.694 15.499 3.674 Q 15.475 3.646 15.423 3.646 A 0.18 0.18 0 0 0 15.385 3.649 Q 15.362 3.654 15.345 3.665 A 0.095 0.095 0 0 0 15.323 3.686 A 0.122 0.122 0 0 0 15.305 3.721 Q 15.291 3.759 15.291 3.82 L 15.291 4.071 L 15.219 4.071 L 15.219 3.593 L 15.278 3.593 L 15.289 3.658 L 15.293 3.658 Q 15.313 3.623 15.351 3.604 A 0.172 0.172 0 0 1 15.419 3.585 A 0.208 0.208 0 0 1 15.434 3.584 Q 15.504 3.584 15.544 3.615 A 0.124 0.124 0 0 1 15.581 3.665 L 15.585 3.665 A 0.151 0.151 0 0 1 15.642 3.609 A 0.182 0.182 0 0 1 15.647 3.606 A 0.183 0.183 0 0 1 15.714 3.585 A 0.229 0.229 0 0 1 15.739 3.584 Q 15.794 3.584 15.83 3.603 A 0.119 0.119 0 0 1 15.861 3.626 A 0.125 0.125 0 0 1 15.888 3.67 Q 15.895 3.689 15.898 3.713 A 0.333 0.333 0 0 1 15.901 3.759 L 15.901 4.071 Z M 13.031 4.01 L 13.026 4.01 L 13.011 4.071 L 12.959 4.071 L 12.959 3.392 L 13.031 3.392 L 13.031 3.557 A 1.512 1.512 0 0 1 13.03 3.608 Q 13.03 3.632 13.028 3.654 A 0.908 0.908 0 0 1 13.028 3.657 L 13.031 3.657 A 0.165 0.165 0 0 1 13.151 3.587 A 0.248 0.248 0 0 1 13.181 3.585 A 0.222 0.222 0 0 1 13.244 3.593 A 0.166 0.166 0 0 1 13.328 3.649 A 0.214 0.214 0 0 1 13.365 3.721 Q 13.38 3.769 13.38 3.832 Q 13.38 3.95 13.328 4.015 A 0.172 0.172 0 0 1 13.206 4.079 A 0.246 0.246 0 0 1 13.181 4.08 A 0.22 0.22 0 0 1 13.126 4.073 A 0.191 0.191 0 0 1 13.096 4.063 A 0.161 0.161 0 0 1 13.031 4.01 Z M 14.267 4.012 L 14.267 4.067 A 0.071 0.071 0 0 1 14.259 4.07 Q 14.25 4.073 14.237 4.076 A 0.271 0.271 0 0 1 14.232 4.076 A 0.314 0.314 0 0 1 14.212 4.079 Q 14.202 4.08 14.194 4.08 A 0.185 0.185 0 0 1 14.191 4.08 A 0.189 0.189 0 0 1 14.135 4.073 Q 14.074 4.054 14.058 3.987 A 0.228 0.228 0 0 1 14.052 3.934 L 14.052 3.649 L 13.984 3.649 L 13.984 3.614 L 14.052 3.584 L 14.083 3.482 L 14.125 3.482 L 14.125 3.593 L 14.264 3.593 L 14.264 3.649 L 14.125 3.649 L 14.125 3.931 A 0.146 0.146 0 0 0 14.127 3.956 Q 14.131 3.981 14.145 3.997 A 0.067 0.067 0 0 0 14.187 4.019 A 0.097 0.097 0 0 0 14.202 4.02 A 0.238 0.238 0 0 0 14.236 4.018 A 0.225 0.225 0 0 0 14.239 4.017 Q 14.256 4.015 14.266 4.012 A 0.109 0.109 0 0 0 14.267 4.012 Z M 14.583 4.012 L 14.583 4.067 A 0.071 0.071 0 0 1 14.574 4.07 Q 14.565 4.073 14.552 4.076 A 0.271 0.271 0 0 1 14.548 4.076 A 0.314 0.314 0 0 1 14.528 4.079 Q 14.518 4.08 14.509 4.08 A 0.185 0.185 0 0 1 14.507 4.08 A 0.189 0.189 0 0 1 14.451 4.073 Q 14.39 4.054 14.374 3.987 A 0.228 0.228 0 0 1 14.368 3.934 L 14.368 3.649 L 14.299 3.649 L 14.299 3.614 L 14.368 3.584 L 14.399 3.482 L 14.44 3.482 L 14.44 3.593 L 14.579 3.593 L 14.579 3.649 L 14.44 3.649 L 14.44 3.931 A 0.146 0.146 0 0 0 14.443 3.956 Q 14.447 3.981 14.461 3.997 A 0.067 0.067 0 0 0 14.502 4.019 A 0.097 0.097 0 0 0 14.517 4.02 A 0.238 0.238 0 0 0 14.552 4.018 A 0.225 0.225 0 0 0 14.554 4.017 Q 14.572 4.015 14.582 4.012 A 0.109 0.109 0 0 0 14.583 4.012 Z M 13.913 3.904 A 0.374 0.374 0 0 0 13.92 3.832 A 0.426 0.426 0 0 0 13.92 3.82 Q 13.917 3.714 13.861 3.651 A 0.19 0.19 0 0 0 13.773 3.594 A 0.244 0.244 0 0 0 13.701 3.584 A 0.282 0.282 0 0 0 13.651 3.588 A 0.192 0.192 0 0 0 13.539 3.649 Q 13.48 3.715 13.48 3.832 A 0.363 0.363 0 0 0 13.485 3.89 A 0.268 0.268 0 0 0 13.507 3.964 A 0.238 0.238 0 0 0 13.512 3.974 A 0.196 0.196 0 0 0 13.584 4.05 A 0.202 0.202 0 0 0 13.63 4.071 A 0.233 0.233 0 0 0 13.698 4.08 A 0.281 0.281 0 0 0 13.747 4.076 A 0.193 0.193 0 0 0 13.861 4.014 A 0.202 0.202 0 0 0 13.885 3.981 Q 13.905 3.948 13.913 3.904 Z M 15.085 3.904 A 0.374 0.374 0 0 0 15.092 3.832 A 0.426 0.426 0 0 0 15.091 3.82 Q 15.089 3.714 15.032 3.651 A 0.19 0.19 0 0 0 14.944 3.594 A 0.244 0.244 0 0 0 14.873 3.584 A 0.282 0.282 0 0 0 14.822 3.588 A 0.192 0.192 0 0 0 14.71 3.649 Q 14.652 3.715 14.652 3.832 A 0.363 0.363 0 0 0 14.656 3.89 A 0.268 0.268 0 0 0 14.679 3.964 A 0.238 0.238 0 0 0 14.684 3.974 A 0.196 0.196 0 0 0 14.756 4.05 A 0.202 0.202 0 0 0 14.802 4.071 A 0.233 0.233 0 0 0 14.87 4.08 A 0.281 0.281 0 0 0 14.919 4.076 A 0.193 0.193 0 0 0 15.033 4.014 A 0.202 0.202 0 0 0 15.057 3.981 Q 15.076 3.948 15.085 3.904 Z M 13.555 3.832 A 0.367 0.367 0 0 0 13.559 3.884 Q 13.567 3.938 13.592 3.971 A 0.119 0.119 0 0 0 13.669 4.017 A 0.18 0.18 0 0 0 13.7 4.019 A 0.168 0.168 0 0 0 13.744 4.014 A 0.117 0.117 0 0 0 13.808 3.972 A 0.156 0.156 0 0 0 13.832 3.924 Q 13.839 3.903 13.842 3.876 A 0.382 0.382 0 0 0 13.845 3.832 Q 13.845 3.773 13.83 3.733 A 0.149 0.149 0 0 0 13.808 3.693 A 0.119 0.119 0 0 0 13.734 3.649 A 0.183 0.183 0 0 0 13.699 3.646 A 0.173 0.173 0 0 0 13.656 3.651 A 0.115 0.115 0 0 0 13.591 3.692 Q 13.565 3.726 13.558 3.783 A 0.383 0.383 0 0 0 13.555 3.832 Z M 14.727 3.832 A 0.367 0.367 0 0 0 14.73 3.884 Q 14.738 3.938 14.764 3.971 A 0.119 0.119 0 0 0 14.841 4.017 A 0.18 0.18 0 0 0 14.872 4.019 A 0.168 0.168 0 0 0 14.916 4.014 A 0.117 0.117 0 0 0 14.98 3.972 A 0.156 0.156 0 0 0 15.004 3.924 Q 15.011 3.903 15.014 3.876 A 0.382 0.382 0 0 0 15.017 3.832 Q 15.017 3.773 15.001 3.733 A 0.149 0.149 0 0 0 14.98 3.693 A 0.119 0.119 0 0 0 14.905 3.649 A 0.183 0.183 0 0 0 14.871 3.646 A 0.173 0.173 0 0 0 14.828 3.651 A 0.115 0.115 0 0 0 14.763 3.692 Q 14.737 3.726 14.73 3.783 A 0.383 0.383 0 0 0 14.727 3.832 Z M 13.171 3.646 A 0.204 0.204 0 0 0 13.131 3.649 Q 13.109 3.654 13.092 3.664 A 0.096 0.096 0 0 0 13.064 3.688 A 0.124 0.124 0 0 0 13.046 3.722 Q 13.031 3.764 13.031 3.832 Q 13.031 3.933 13.065 3.976 Q 13.095 4.015 13.158 4.019 A 0.233 0.233 0 0 0 13.173 4.019 A 0.145 0.145 0 0 0 13.214 4.014 A 0.104 0.104 0 0 0 13.272 3.971 A 0.166 0.166 0 0 0 13.293 3.926 Q 13.299 3.905 13.302 3.879 A 0.415 0.415 0 0 0 13.305 3.831 A 0.428 0.428 0 0 0 13.302 3.782 Q 13.296 3.729 13.276 3.696 A 0.12 0.12 0 0 0 13.272 3.691 A 0.106 0.106 0 0 0 13.205 3.649 A 0.168 0.168 0 0 0 13.171 3.646 Z" id="bottom_labelLayer" stroke="#777777" fill="#777777" style="stroke:#777777;fill:#777777" vector-effect="non-scaling-stroke"/></g></svg>