<?xml version="1.0" encoding="UTF-8" standalone="no"?>
<svg
   width="445.94171mm"
   height="220.83621mm"
   viewBox="0 0 17.55676 8.6943389"
   version="1.1"
   preserveAspectRatio="xMidYMid meet"
   id="svg86"
   sodipodi:docname="couvercle.svg"
   inkscape:version="1.1.2 (b8e25be8, 2022-02-05)"
   xmlns:inkscape="http://www.inkscape.org/namespaces/inkscape"
   xmlns:sodipodi="http://sodipodi.sourceforge.net/DTD/sodipodi-0.dtd"
   xmlns="http://www.w3.org/2000/svg"
   xmlns:svg="http://www.w3.org/2000/svg">
  <defs
     id="defs90" />
  <sodipodi:namedview
     id="namedview88"
     pagecolor="#ffffff"
     bordercolor="#666666"
     borderopacity="1.0"
     inkscape:pageshadow="2"
     inkscape:pageopacity="0.0"
     inkscape:pagecheckerboard="0"
     inkscape:document-units="in"
     showgrid="false"
     fit-margin-bottom="5"
     fit-margin-top="5"
     fit-margin-left="5"
     fit-margin-right="5"
     units="mm"
     inkscape:zoom="0.34039666"
     inkscape:cx="728.56179"
     inkscape:cy="340.7789"
     inkscape:window-width="1280"
     inkscape:window-height="800"
     inkscape:window-x="0"
     inkscape:window-y="0"
     inkscape:window-maximized="0"
     inkscape:current-layer="svgGroup" />
  <g
     inkscape:groupmode="layer"
     id="layer1"
     inkscape:label="Cut"
     style="display:inline">
    <g
       id="svgGroup"
       stroke-linecap="round"
       fill-rule="evenodd"
       font-size="12px"
       stroke="#000"
       stroke-width="0.25mm"
       fill="none"
       style="fill:none;stroke:#000000;stroke-width:0.25mm"
       transform="translate(0.24685039,0.24685039)">
      <path
         d="M 0,6.236 V 6.618 H 0.236 V 7.09 H 0 V 7.472 H 0.584 V 7.236 H 1.056 V 7.472 H 1.528 V 7.236 H 2 V 7.472 H 2.472 V 7.236 H 2.944 V 7.472 H 3.416 V 7.236 H 3.888 V 7.472 H 4.36 4.472 V 7.09 H 4.236 V 6.618 H 4.472 V 6.236 Z"
         id="front_outsideCutPath"
         stroke="#FF0000"
         stroke-width="0.1"
         style="stroke:#ff0000;stroke-width:0.1"
         vector-effect="non-scaling-stroke" />
      <path
         d="M 0,4.875 V 5.257 H 0.236 V 5.729 H 0 V 6.111 H 0.584 V 5.875 H 1.056 V 6.111 H 1.528 V 5.875 H 2 V 6.111 H 2.472 V 5.875 H 2.944 V 6.111 H 3.416 V 5.875 H 3.888 V 6.111 H 4.36 4.472 V 5.729 H 4.236 V 5.257 H 4.472 V 4.875 Z"
         id="back_outsideCutPath"
         stroke="#FF0000"
         stroke-width="0.1"
         style="stroke:#ff0000;stroke-width:0.1"
         vector-effect="non-scaling-stroke" />
      <path
         d="M 4.833,4.875 V 5.257 H 4.597 V 5.729 H 4.833 V 6.111 H 5.265 V 5.875 H 5.737 V 6.111 H 6.209 V 5.875 H 6.681 V 6.111 H 7.153 V 5.875 H 7.625 V 6.111 H 8.097 V 5.875 H 8.569 V 6.111 H 9.041 V 5.875 H 9.513 V 6.111 H 9.985 V 5.875 h 0.472 v 0.236 h 0.472 V 5.875 h 0.472 v 0.236 h 0.432 V 5.729 h 0.236 V 5.257 H 11.833 V 4.875 Z"
         id="right_outsideCutPath"
         stroke="#FF0000"
         stroke-width="0.1"
         style="stroke:#ff0000;stroke-width:0.1"
         vector-effect="non-scaling-stroke" />
      <path
         d="M 12.43,0.236 V 0.668 H 12.194 V 1.14 H 12.43 V 1.612 H 12.194 V 2.084 H 12.43 V 2.556 H 12.194 V 3.028 H 12.43 V 3.5 H 12.194 V 3.972 H 12.43 V 4.444 H 12.194 V 4.916 H 12.43 V 5.388 H 12.194 V 5.86 h 0.236 v 0.472 h -0.236 v 0.472 h 0.236 v 0.432 h 0.348 V 7.472 H 13.25 V 7.236 h 0.472 v 0.236 h 0.472 V 7.236 h 0.472 v 0.236 h 0.472 V 7.236 h 0.472 v 0.236 h 0.472 V 7.236 H 16.43 V 6.804 h 0.236 V 6.332 H 16.43 V 5.86 h 0.236 V 5.388 H 16.43 V 4.916 h 0.236 V 4.444 H 16.43 V 3.972 h 0.236 V 3.5 H 16.43 V 3.028 h 0.236 V 2.556 H 16.43 V 2.084 h 0.236 V 1.612 H 16.43 V 1.14 h 0.236 V 0.668 H 16.43 V 0.236 H 16.082 V 0 H 15.61 V 0.236 H 15.138 V 0 H 14.666 V 0.236 H 14.194 V 0 H 13.722 V 0.236 H 13.25 V 0 h -0.472 v 0.236 z"
         id="bottom_outsideCutPath"
         stroke="#FF0000"
         stroke-width="0.1"
         style="stroke:#ff0000;stroke-width:0.1"
         vector-effect="non-scaling-stroke" />
    </g>
    <path
       style="fill:none;stroke:#000000;stroke-width:0.0151994px;stroke-linecap:butt;stroke-linejoin:miter;stroke-opacity:1"
       d="m 16.949487,3.9928528 c -9.4091766,0 -1.52159,0 0,0 z"
       id="path1713" />
    <path
       d="m 5.0798504,6.4620169 v 0.382 h -0.236 v 0.472 h 0.236 v 0.382 h 0.432 v -0.236 h 0.472 v 0.236 h 0.472 v -0.236 h 0.472 v 0.236 h 0.472 v -0.236 h 0.472 v 0.236 h 0.472 v -0.236 h 0.472 v 0.236 h 0.472 v -0.236 h 0.472 v 0.236 H 10.23185 v -0.236 h 0.472 v 0.236 h 0.472 v -0.236 h 0.472 v 0.236 h 0.432 v -0.382 h 0.236 v -0.472 h -0.236 v -0.382 z"
       id="right_outsideCutPath-8"
       stroke="#FF0000"
       stroke-width="0.1"
       style="fill:none;stroke:#ff0000;stroke-width:0.1"
       vector-effect="non-scaling-stroke" />
    <path
       style="fill:none;stroke:#000000;stroke-width:0.00965689px;stroke-linecap:butt;stroke-linejoin:miter;stroke-opacity:1"
       d="m 9.7598504,7.635517 c -2.471412,-2.4547428 -0.39966,-0.3969647 0,0 z"
       id="path1713-5-7-5" />
    <path
       style="fill:none;stroke:#000000;stroke-width:0.00965689px;stroke-linecap:butt;stroke-linejoin:miter;stroke-opacity:1"
       d="m 9.7598504,6.2953505 c -2.4714122,-2.4547428 -0.3996604,-0.3969647 0,0 z"
       id="path1713-5-7" />
  </g>
  <g
     inkscape:groupmode="layer"
     id="layer2"
     inkscape:label="Engrave"
     style="display:inline" />
</svg>
